HIERARCHY
ROOT root     
{
	OFFSET 0.0000 0.0000 0.0000
	CHANNELS 6 Xposition Yposition Zposition Zrotation Yrotation Xrotation
	JOINT pelvis   
	{
		OFFSET 0.0000 0.0000 0.0000
		CHANNELS 3 Zrotation Yrotation Xrotation
		JOINT thorax   
		{
			OFFSET 0.0000 23.0750 -5.0000
			CHANNELS 3 Zrotation Yrotation Xrotation
			JOINT rclavicle
			{
				OFFSET 0.0000 28.0009 0.0000
				CHANNELS 3 Zrotation Yrotation Xrotation
				JOINT rhumerus 
				{
					OFFSET -18.5725 5.5939 0.0000
					CHANNELS 3 Zrotation Yrotation Xrotation
					JOINT rradius  
					{
						OFFSET -24.8459 0.0000 0.0000
						CHANNELS 3 Zrotation Yrotation Xrotation
						JOINT rhand    
						{
							OFFSET -24.5477 0.0000 0.0000
							CHANNELS 3 Zrotation Yrotation Xrotation
							End Site
							{
								OFFSET -8.1826 0.0000 0.0000
							}
						}
					}
				}
			}
			JOINT lclavicle
			{
				OFFSET 0.0000 28.0009 0.0000
				CHANNELS 3 Zrotation Yrotation Xrotation
				JOINT lhumerus 
				{
					OFFSET 18.5725 5.5939 0.0000
					CHANNELS 3 Zrotation Yrotation Xrotation
					JOINT lradius  
					{
						OFFSET 24.8459 0.0000 0.0000
						CHANNELS 3 Zrotation Yrotation Xrotation
						JOINT lhand    
						{
							OFFSET 24.5477 0.0000 0.0000
							CHANNELS 3 Zrotation Yrotation Xrotation
							End Site
							{
								OFFSET 8.1826 0.0000 0.0000
							}
						}
					}
				}
			}
			JOINT head     
			{
				OFFSET 0.0000 35.2030 0.0000
				CHANNELS 3 Zrotation Yrotation Xrotation
				End Site
				{
					OFFSET 0.0000 11.7343 0.0000
				}
			}
		}
		JOINT rfemur   
		{
			OFFSET -8.2817 0.0000 0.0000
			CHANNELS 3 Zrotation Yrotation Xrotation
			JOINT rtibia   
			{
				OFFSET 0.0000 -43.3627 0.0000
				CHANNELS 3 Zrotation Yrotation Xrotation
				JOINT rfoot    
				{
					OFFSET 0.0000 -38.2947 0.0000
					CHANNELS 3 Zrotation Yrotation Xrotation
					JOINT rtoes    
					{
						OFFSET 0.0000 0.0000 16.6054
						CHANNELS 3 Zrotation Yrotation Xrotation
						End Site
						{
							OFFSET 0.0000 0.0000 5.5351
						}
					}
				}
			}
		}
		JOINT lfemur   
		{
			OFFSET 8.2817 0.0000 0.0000
			CHANNELS 3 Zrotation Yrotation Xrotation
			JOINT ltibia   
			{
				OFFSET 0.0000 -43.3627 0.0000
				CHANNELS 3 Zrotation Yrotation Xrotation
				JOINT lfoot    
				{
					OFFSET 0.0000 -38.2947 0.0000
					CHANNELS 3 Zrotation Yrotation Xrotation
					JOINT ltoes    
					{
						OFFSET 0.0000 0.0000 16.6054
						CHANNELS 3 Zrotation Yrotation Xrotation
						End Site
						{
							OFFSET 0.0000 0.0000 5.5351
						}
					}
				}
			}
		}
	}
}
MOTION
Frames: 7
Frame Time: .0333333
-12.716 83.582 -14.688 24.0631 84.7687 45.2907 0 -0 0 -9.57437 -7.23505 -7.26978 28.1138 -11.5632 6.06069e-05 38.6544 8.8344 30.5905 -180 80.3767 -180 3.47364 6.77058 0.205495 -25.413 13.5072 1.27256e-05 -56.8535 25.3052 0.689297 0 -86.0325 0 18.1121 2.78729 0.444294 24.1601 -7.48191 -8.48839 -3.05189 -11.8284 -13.3949 -0 -0 51.0227 3.90245e-06 -19.2082 3.04541 -1.0604 1.06123e-06 -22.106 -1.57376 7.47966 -43.072 -0 -0 29.9333 2.24173e-06 -1.52986 5.45125 -0.145406 -9.34861e-07 -36.8667 
-11.575 83.264 -14.755 25.2168 84.252 46.4925 0 -0 0 -9.67812 -7.6245 -7.23504 28.0935 -11.4763 0.000102466 39.1399 8.68291 29.9689 -180 80.1951 -180 3.14973 6.86118 0.188902 -25.9749 13.4537 6.96938e-06 -55.4199 23.8042 1.82708 3.01836e-06 -84.8168 -2.7567e-06 18.9805 3.24265 0.542206 24.0897 -7.91726 -8.68076 -4.01056 -11.5681 -14.3456 -0 -0 53.4463 -1.22549e-05 -19.7742 2.01508 -0.724287 1.84859e-06 -18.9516 -1.83101 7.13874 -43.4833 -0 -0 32.6405 -1.35442e-07 -0.601506 4.12451 -0.0432995 5.83592e-07 -35.1937 
-10.426 83.022 -14.803 25.7272 83.6139 46.9811 0 -0 0 -9.82044 -7.83386 -7.13998 28.0724 -11.3845 0 39.817 8.42944 29.3534 -180 80.1842 -180 2.72383 6.84621 0.163004 -26.5064 13.3853 -7.23957e-06 -53.9007 22.0621 3.09166 2.50171e-06 -83.4749 -2.80407e-06 19.5484 3.68022 0.6342 23.9313 -8.38257 -8.8177 -4.96309 -11.057 -15.3112 -0 -0 55.7226 -5.87594e-06 -19.792 1.26806 -0.4563 7.60659e-07 -16.8518 -2.05977 6.75025 -43.4698 -0 -0 34.778 -7.68705e-08 0.513706 2.76961 0.0247993 2.47002e-08 -34.0388 
-9.2641 82.861 -14.824 25.5764 82.8827 46.7368 0 -0 0 -9.98986 -7.86714 -6.9997 28.0693 -11.2918 -3.85622e-06 40.6399 8.09407 28.7645 -180 80.3294 -180 2.19005 6.71354 0.128502 -26.9789 13.293 -0.000118541 -52.3884 20.1635 4.39114 1.43774e-06 -82.074 -1.65171e-06 19.7799 4.05305 0.706915 23.6948 -8.87288 -8.8752 -5.87381 -10.3305 -16.2882 -0 -0 57.8148 2.01927e-07 -19.3086 0.790107 -0.276801 1.50035e-07 -15.7268 -2.2649 6.37725 -43.0585 -0 -0 36.3098 -1.40984e-06 1.74486 1.42204 0.0433003 2.61383e-07 -33.4848 
-8.087 82.781 -14.807 24.7702 82.0622 45.7782 0 -0 0 -10.1413 -7.74072 -6.83381 28.0883 -11.1965 3.05708e-06 41.5624 7.69551 28.2216 -180 80.6222 -180 1.55203 6.46076 0.0876026 -27.3742 13.1616 4.2672e-05 -50.9699 18.2085 5.63965 1.70582e-06 -80.6742 -2.0087e-06 19.6661 4.32234 0.749484 23.3724 -9.37691 -8.83111 -6.68613 -9.42802 -17.2729 -0 -0 59.6841 6.40576e-07 -18.4012 0.565004 -0.188002 -1.17173e-06 -15.5321 -2.42779 6.08327 -42.2953 -0 -0 37.2541 1.02204e-07 3.01846 0.116306 0.00609997 1.19989e-08 -33.5041 
-6.891 82.777 -14.75 23.5171 81.1684 44.3131 0 -0 0 -10.2628 -7.48711 -6.65448 28.1393 -11.1031 1.96958e-05 42.5358 7.26506 27.7473 -180 81.0481 -180 0.820403 6.09394 0.0437005 -27.6629 12.988 -1.09769e-05 -49.7231 16.2908 6.76908 0 -79.3465 -0 19.2381 4.46337 0.756805 22.9607 -9.8803 -8.66931 -7.38558 -8.41791 -18.2526 -0 -0 61.3043 -2.76675e-07 -17.1579 0.564504 -0.174303 -5.58405e-07 -16.2136 -2.55065 5.8972 -41.2208 -0 -0 37.6527 -5.08315e-07 4.28449 -1.10342 -0.0827014 6.23149e-08 -33.9847 
-5.6747 82.843 -14.652 21.9777 80.2224 42.51 0 -0 0 -10.3314 -7.14902 -6.4751 28.2241 -11.0155 -7.40883e-05 43.5119 6.83256 27.3632 -180 81.5897 -180 0.0176004 5.62903 0.000900019 -27.8236 12.7705 2.38927e-05 -48.7032 14.5008 7.73404 2.7435e-06 -78.1415 -2.90058e-06 18.5495 4.4733 0.730897 22.4509 -10.3648 -8.38165 -7.95314 -7.36955 -19.2188 -0 -0 62.6592 -2.6526e-06 -15.6887 0.750305 -0.210699 5.51357e-07 -17.6552 -2.63195 5.84083 -39.8842 -0 -0 37.5678 2.74694e-06 5.4917 -2.18825 -0.210305 -1.4769e-06 -34.7715 
